<svg xmlns="http://www.w3.org/2000/svg" xmlns:xlink="http://www.w3.org/1999/xlink" version="1.1" width="256" height="256" viewBox="0 0 256 256" xml:space="preserve">
<g style="stroke: none; stroke-width: 0; stroke-dasharray: none; stroke-linecap: butt; stroke-linejoin: miter; stroke-miterlimit: 10; fill: none; fill-rule: nonzero; opacity: 1;" transform="translate(1.4065934065934016 1.4065934065934016) scale(2.81 2.81)">
	<path d="M 7.662 29.834 L 7.662 29.834 c 8.891 -8.891 23.305 -8.891 32.195 0 l 19.559 19.559 L 43.319 65.491 c -8.89 8.89 -23.305 8.89 -32.195 0 l -3.462 -3.462 C -1.228 53.139 -1.228 38.724 7.662 29.834 z" style="stroke: none; stroke-width: 1; stroke-dasharray: none; stroke-linecap: butt; stroke-linejoin: miter; stroke-miterlimit: 10; fill: rgb(247,171,49); fill-rule: nonzero; opacity: 1;" transform=" matrix(1 0 0 1 0 0) " stroke-linecap="round"/>
	<circle cx="25.487000000000002" cy="47.666999999999994" r="14.257" style="stroke: none; stroke-width: 1; stroke-dasharray: none; stroke-linecap: butt; stroke-linejoin: miter; stroke-miterlimit: 10; fill: rgb(204,204,204); fill-rule: nonzero; opacity: 1;" transform="  matrix(1 0 0 1 0 0) "/>
	<path d="M 16.778 24.263 v -3.774 c 0 -1.462 1.185 -2.647 2.647 -2.647 h 8.533 c 1.462 0 2.647 1.185 2.647 2.647 v 3.732" style="stroke: none; stroke-width: 1; stroke-dasharray: none; stroke-linecap: butt; stroke-linejoin: miter; stroke-miterlimit: 10; fill: rgb(247,171,49); fill-rule: nonzero; opacity: 1;" transform=" matrix(1 0 0 1 0 0) " stroke-linecap="round"/>
	<rect x="67.81" y="17.36" rx="0" ry="0" width="4.87" height="35.51" style="stroke: none; stroke-width: 1; stroke-dasharray: none; stroke-linecap: butt; stroke-linejoin: miter; stroke-miterlimit: 10; fill: rgb(204,204,204); fill-rule: nonzero; opacity: 1;" transform=" matrix(-0.7071 -0.7071 0.7071 -0.7071 95.0905 109.6187) "/>
	<rect x="83.54" y="18.57" rx="0" ry="0" width="3.01" height="8.2" style="stroke: none; stroke-width: 1; stroke-dasharray: none; stroke-linecap: butt; stroke-linejoin: miter; stroke-miterlimit: 10; fill: rgb(204,204,204); fill-rule: nonzero; opacity: 1;" transform=" matrix(0.7071 -0.7071 0.7071 0.7071 8.8754 66.775) "/>
	<path d="M 27.221 73.159 c -6.348 0 -12.316 -2.472 -16.805 -6.961 l -3.461 -3.461 c -9.266 -9.267 -9.266 -24.344 0 -33.61 c 4.489 -4.489 10.457 -6.961 16.805 -6.961 c 6.348 0 12.316 2.472 16.805 6.961 l 19.559 19.559 c 0.391 0.391 0.391 1.024 0 1.414 L 44.026 66.198 C 39.538 70.687 33.57 73.159 27.221 73.159 z M 23.76 24.166 c -5.814 0 -11.279 2.264 -15.391 6.375 c -8.486 8.486 -8.486 22.295 0 30.781 l 3.461 3.461 c 4.111 4.111 9.577 6.375 15.391 6.375 s 11.28 -2.264 15.391 -6.375 l 15.391 -15.391 L 39.151 30.541 C 35.04 26.43 29.574 24.166 23.76 24.166 z" style="stroke: none; stroke-width: 1; stroke-dasharray: none; stroke-linecap: butt; stroke-linejoin: miter; stroke-miterlimit: 10; fill: rgb(0,0,0); fill-rule: nonzero; opacity: 1;" transform=" matrix(1 0 0 1 0 0) " stroke-linecap="round"/>
	<path d="M 25.491 62.919 c -4.075 0 -7.906 -1.587 -10.788 -4.469 c -2.882 -2.881 -4.469 -6.713 -4.469 -10.787 c 0 -4.076 1.587 -7.907 4.469 -10.788 c 5.948 -5.949 15.627 -5.948 21.576 0 l 0 0 l 0 0 c 2.882 2.881 4.469 6.712 4.469 10.788 c 0 4.075 -1.587 7.906 -4.469 10.787 C 33.397 61.332 29.566 62.919 25.491 62.919 z M 25.491 34.412 c -3.394 0 -6.789 1.292 -9.374 3.876 c -2.504 2.504 -3.883 5.833 -3.883 9.374 c 0 3.54 1.379 6.87 3.883 9.373 c 2.504 2.504 5.833 3.883 9.374 3.883 s 6.87 -1.379 9.374 -3.883 c 2.504 -2.503 3.883 -5.833 3.883 -9.373 c 0 -3.541 -1.379 -6.87 -3.883 -9.374 l 0 0 C 32.28 35.704 28.885 34.412 25.491 34.412 z" style="stroke: none; stroke-width: 1; stroke-dasharray: none; stroke-linecap: butt; stroke-linejoin: miter; stroke-miterlimit: 10; fill: rgb(0,0,0); fill-rule: nonzero; opacity: 1;" transform=" matrix(1 0 0 1 0 0) " stroke-linecap="round"/>
	<path d="M 16.778 25.263 c -0.552 0 -1 -0.448 -1 -1 v -3.774 c 0 -2.011 1.636 -3.647 3.647 -3.647 h 8.533 c 2.011 0 3.647 1.636 3.647 3.647 v 3.732 c 0 0.552 -0.448 1 -1 1 s -1 -0.448 -1 -1 v -3.732 c 0 -0.908 -0.739 -1.647 -1.647 -1.647 h -8.533 c -0.908 0 -1.647 0.739 -1.647 1.647 v 3.774 C 17.778 24.815 17.33 25.263 16.778 25.263 z" style="stroke: none; stroke-width: 1; stroke-dasharray: none; stroke-linecap: butt; stroke-linejoin: miter; stroke-miterlimit: 10; fill: rgb(0,0,0); fill-rule: nonzero; opacity: 1;" transform=" matrix(1 0 0 1 0 0) " stroke-linecap="round"/>
	<path d="M 59.417 50.393 c -0.256 0 -0.512 -0.098 -0.707 -0.293 l -3.447 -3.447 c -0.391 -0.391 -0.391 -1.024 0 -1.414 l 25.109 -25.109 c 0.391 -0.391 1.024 -0.391 1.414 0 l 3.447 3.447 c 0.391 0.391 0.391 1.024 0 1.414 L 60.124 50.1 C 59.929 50.296 59.673 50.393 59.417 50.393 z M 57.384 45.946 l 2.032 2.032 l 23.694 -23.694 l -2.032 -2.032 L 57.384 45.946 z" style="stroke: none; stroke-width: 1; stroke-dasharray: none; stroke-linecap: butt; stroke-linejoin: miter; stroke-miterlimit: 10; fill: rgb(0,0,0); fill-rule: nonzero; opacity: 1;" transform=" matrix(1 0 0 1 0 0) " stroke-linecap="round"/>
	<path d="M 86.878 27.638 c -0.256 0 -0.512 -0.098 -0.707 -0.293 l -5.8 -5.8 c -0.391 -0.391 -0.391 -1.024 0 -1.414 l 2.127 -2.127 c 0.391 -0.391 1.024 -0.391 1.414 0 l 5.8 5.8 c 0.391 0.391 0.391 1.024 0 1.414 l -2.127 2.127 C 87.39 27.54 87.134 27.638 86.878 27.638 z M 82.493 20.838 l 4.385 4.385 l 0.713 -0.713 l -4.385 -4.385 L 82.493 20.838 z" style="stroke: none; stroke-width: 1; stroke-dasharray: none; stroke-linecap: butt; stroke-linejoin: miter; stroke-miterlimit: 10; fill: rgb(0,0,0); fill-rule: nonzero; opacity: 1;" transform=" matrix(1 0 0 1 0 0) " stroke-linecap="round"/>
	<path d="M 30.18 43.974 c -0.256 0 -0.512 -0.098 -0.707 -0.293 c -2.195 -2.196 -5.767 -2.195 -7.963 0 c -0.391 0.391 -1.024 0.391 -1.414 0 c -0.391 -0.391 -0.391 -1.024 0 -1.414 c 2.975 -2.976 7.817 -2.975 10.792 0 c 0.391 0.391 0.391 1.024 0 1.414 C 30.692 43.876 30.436 43.974 30.18 43.974 z" style="stroke: none; stroke-width: 1; stroke-dasharray: none; stroke-linecap: butt; stroke-linejoin: miter; stroke-miterlimit: 10; fill: rgb(0,0,0); fill-rule: nonzero; opacity: 1;" transform=" matrix(1 0 0 1 0 0) " stroke-linecap="round"/>
</g>
</svg>